<?xml version="1.0" encoding="utf-8"?>
<!-- Generator: Adobe Illustrator 27.0.0, SVG Export Plug-In . SVG Version: 6.00 Build 0)  -->
<svg version="1.1" id="Warstwa_1" xmlns="http://www.w3.org/2000/svg" xmlns:xlink="http://www.w3.org/1999/xlink" x="0px" y="0px"
	 viewBox="0 0 96 96" style="enable-background:new 0 0 96 96;" xml:space="preserve">
<style type="text/css">
	.st0{fill:#99425B;}
	.st1{fill:#FFFFFF;}
</style>
<path class="st0" d="M77.9,47.9c0-4-3.3-7-7-7c-0.1,0-0.7,0-0.8,0L80,11.6H37.5l10.2,29.3c-0.1,0-0.4,0-0.5,0c-4,0-7,3.3-7,7
	c0,3.3,2.2,6,5.1,6.9c-1.5,2.6-3.6,5.1-5.5,7c-2.9,2.9-6.3,5-10.2,6.3c-4.4-2.5-6.5-7.2-4.7-11.7c0.1-0.7,0.5-0.8,0.7-1.5
	c3.3-0.8,5.5-3.7,5.5-7c0-4-3.3-7-7-7s-7.4,3-7.4,6.9c0,2.5,1.2,4.7,3,6c-1.8,4-4.4,8.4-5.4,13.2c-0.8,6,0,12.1,5.1,15.8
	c11.9,8.4,25-5.1,38.6-8.5c5-1.2,10.3-0.8,14.6-3.6c3.3-1.9,5.5-5.1,6-8.5c0.5-3.4-0.4-7-2.5-9.8C77.2,51.3,77.9,49.7,77.9,47.9"/>
<path class="st1" d="M76.6,61.9c-0.7,3-2.5,5.6-5.4,7.2c-2.5,1.5-5.5,2.1-8.9,2.5c-1.8,0.1-3.6,0.7-5.4,0.8
	c-4.7,1.1-9.1,3.4-13.5,5.5c-8.5,4.3-16.3,8.3-23.5,3.3c-5.4-3.7-5-10.3-4.4-14c0.7-3.4,2.2-6.5,3.6-9.6c0.1-0.7,0.7-0.8,0.8-1.5
	c0.8,0.4,1.5,0.5,2.5,0.7c-1.5,5,0.8,10.3,5.8,13.1l0.7,0.4l0.7-0.1c4-1.4,7.6-3.7,10.6-6.7c2.2-2.1,3.7-4,5.4-6.3
	c0.4,0.4,0.7,0.4,1.2,0.4c4.4,0,8.4-3.4,8.9-7.9c1.9-0.1,3.7-0.1,5.6,0c0.7,4.4,4.3,7.9,8.9,7.9c1.9,0,3.7-0.7,5.1-1.8
	C76.6,57.4,77.2,59.7,76.6,61.9L76.6,61.9z M23.5,42.5c2.9,0,5.4,2.5,5.4,5.4c0,1.1-0.4,2.2-0.8,2.9c-0.8,1.4-2.5,2.5-4.1,2.5
	c-0.1,0-0.1,0-0.4,0c-0.7,0-1.4-0.1-1.9-0.4c-1.2-0.5-2.2-1.4-2.9-2.5c-0.7-0.8-1.1-1.8-1.1-2.6C18,45,20.3,42.5,23.5,42.5
	L23.5,42.5z M41.7,47.9c0-2.8,2.1-5,4.7-5.4c0.1,0,0.7-0.1,0.8-0.1c1.8,0,3.3,0.8,4.3,2.2c0.1,0.4,0.5,0.7,0.7,0.8
	c0.4,0.8,0.7,1.5,0.7,2.5c0,0.5,0,0.8-0.1,1.2c-0.7,2.2-2.5,4-4.8,4.1c-0.1,0-0.4,0-0.7,0c-1.1,0-2.2-0.4-2.9-0.8
	C42.5,51.5,41.7,49.9,41.7,47.9L41.7,47.9z M64.5,41.5c-1.2,1.1-2.2,2.5-2.5,4.1c-2.2-0.1-4-0.1-6.2,0c-0.5-1.8-1.4-3.3-2.8-4.4
	l5.5-11.4L64.5,41.5z M40.1,13.2h37.2l-8.8,25.9c-0.4,0.1-0.8,0.1-1.1,0.4L59,21.7l-8.5,17.6c-0.4-0.1-0.8-0.1-1.2-0.4L40.1,13.2z
	 M75.9,47.9c0,0.7-0.1,1.1-0.1,1.5c-0.4,1.2-1.1,2.2-2.2,2.9c-0.8,0.7-2.1,0.8-3,0.8c-2.5,0-4.7-1.8-5.4-4c-0.1-0.5-0.1-0.8-0.1-1.4
	c0-0.7,0.1-1.4,0.5-2.2c0.1-0.4,0.4-0.7,0.7-0.8c0.8-1.4,2.6-2.5,4.4-2.5c0.1,0,0.4,0,0.7,0C74,42.9,75.9,45.1,75.9,47.9L75.9,47.9z
	 M79.5,47.9c0-4.4-3.3-8.1-7.2-8.8l9.9-29.3H35.3l9.9,29.5c-4,0.8-7,4.4-7,8.5c0,3.3,1.8,6,4.1,7.6c-1.2,1.9-2.6,3.6-4.3,5.1
	c-2.6,2.5-5.5,4.4-8.5,5.5c-3.3-2.1-4.4-5.6-3-9.1l0.1-0.1l0.1-0.5c3.6-1.2,6-4.4,6-8.5c0-5-4-8.9-8.9-8.9s-9.1,3.7-9.1,8.8
	c0,2.5,0.8,4.8,2.6,6.3c-0.4,0.7-0.7,1.4-0.8,2.1c-1.5,3-3.3,6.7-3.7,10.5c-1.4,7.7,0.7,14,5.8,17.5c3,2.2,6.2,2.9,9.5,2.9
	c6,0,11.8-2.9,17.6-5.8c4.1-2.2,8.5-4.3,13.1-5.4c1.5-0.5,3.3-0.7,5-0.8c3.4-0.7,7-0.8,10.2-2.9c3.7-2.2,6.2-5.6,6.9-9.9
	c0.7-3.6-0.1-7-1.9-9.9C79.1,51.2,79.5,49.7,79.5,47.9L79.5,47.9z"/>
</svg>
