<?xml version="1.0" encoding="utf-8"?>
<!-- Generator: Adobe Illustrator 27.0.0, SVG Export Plug-In . SVG Version: 6.00 Build 0)  -->
<svg version="1.1" id="Warstwa_1" xmlns="http://www.w3.org/2000/svg" xmlns:xlink="http://www.w3.org/1999/xlink" x="0px" y="0px"
	 viewBox="0 0 96 96" style="enable-background:new 0 0 96 96;" xml:space="preserve">
<style type="text/css">
	.st0{fill:#5D4037;}
	.st1{fill:#4CAF50;}
	.st2{fill:#DCEDC8;}
	.st3{fill:#81C784;}
</style>
<path class="st0" d="M90.8,32.1C90.8,80.8,48,95.5,48,95.5S5.2,80.8,5.2,32.1c0-5.9,0.5-10.9,1-15C6.9,11.2,10.9,6.4,16.6,5
	C24,2.9,35.6,0.5,48,0.5S72,2.9,79.6,5c5.7,1.4,9.7,6.4,10.4,12.1C90.3,21.2,90.8,26.4,90.8,32.1z"/>
<path class="st1" d="M48,7.6c11.6,0,22.6,2.4,29.7,4.3c2.8,0.7,4.8,3.1,5.2,6.2c0.5,4.5,0.7,9.3,0.7,14c0,37.1-27.3,52-35.6,55.6
	c-8.3-3.8-35.6-18.8-35.6-55.6c0-4.8,0.2-9.5,0.7-14c0.2-3.1,2.4-5.5,5.2-6.2C25.4,10,36.4,7.6,48,7.6 M48,0.5
	C35.6,0.5,24,2.9,16.4,5c-5.5,1.4-9.7,6.4-10.2,12.1c-0.5,4-1,9.3-1,15C5.2,80.8,48,95.5,48,95.5s42.8-14.7,42.8-63.4
	c0-5.9-0.5-10.9-1-15C89.1,11.2,85,6.4,79.3,5C72,2.9,60.4,0.5,48,0.5L48,0.5z"/>
<path class="st2" d="M45.6,57.5h4.8v19h-4.8V57.5z"/>
<path class="st1" d="M48,14.8c0,0-14.2,11.9-14.2,30.9c0,12.4,7.8,20.2,11.9,23.8l2.4-7.1l2.4,7.1c4-3.6,11.9-11.4,11.9-23.8
	C62.2,26.6,48,14.8,48,14.8z"/>
<path class="st3" d="M48,14.8c0,0-14.2,11.9-14.2,30.9c0,12.4,7.8,20.2,11.9,23.8l2.4-7.1V14.8z"/>
</svg>
