<?xml version="1.0" encoding="utf-8"?>
<!-- Generator: Adobe Illustrator 27.0.0, SVG Export Plug-In . SVG Version: 6.00 Build 0)  -->
<svg version="1.1" id="Warstwa_1" xmlns="http://www.w3.org/2000/svg" xmlns:xlink="http://www.w3.org/1999/xlink" x="0px" y="0px"
	 viewBox="0 0 100 100" style="enable-background:new 0 0 100 100;" xml:space="preserve">
<style type="text/css">
	.st0{opacity:0.35;enable-background:new    ;}
	.st1{fill:#E6F1FF;}
	.st2{fill:#0A192F;}
	.st3{fill:#8892B0;}
</style>
<g>
	<g transform="scale(2.56,2.56)">
		<path class="st0" d="M6.3,39.1c-3,0-5.4-2.4-5.4-5.4V6.2c0-3,2.4-5.4,5.4-5.4h27.4c3,0,5.4,2.4,5.4,5.4v27.5c0,3-2.4,5.4-5.4,5.4
			H6.3z"/>
		<path class="st1" d="M5.4,38.2c-3,0-5.4-2.4-5.4-5.4V5.4C0,2.4,2.4,0,5.4,0h27.4c3,0,5.4,2.4,5.4,5.4v27.5c0,3-2.4,5.4-5.4,5.4
			H5.4z"/>
		<path class="st2" d="M32.9,35.1H5.5c-1.3,0-2.4-1.1-2.4-2.4V5.3c0-1.3,1.1-2.4,2.4-2.4h27.4c1.3,0,2.4,1.1,2.4,2.4v27.5
			C35.1,34,34.1,35.1,32.9,35.1z"/>
		<path class="st1" d="M28.5,17.2h-7.4V9.8h-3.7v7.4H10v3.7h7.4v7.5h3.7V21h7.4V17.2z"/>
		<path class="st3" d="M32.9,35.8H5.5c-1.7,0-3-1.3-3-3V5.4c0-1.7,1.3-3,3-3h27.4c1.7,0,3,1.3,3,3v27.5
			C35.8,34.5,34.5,35.8,32.9,35.8z M5.4,3.6c-1,0-1.7,0.7-1.7,1.7v27.5c0,1,0.7,1.7,1.7,1.7h27.4c1,0,1.7-0.7,1.7-1.7V5.3
			c0-1-0.7-1.7-1.7-1.7C32.8,3.6,5.4,3.6,5.4,3.6z"/>
	</g>
</g>
</svg>
